<?xml version="1.0" encoding="UTF-8"?>
<svg width="92px" height="36px" viewBox="0 0 92 36" version="1.1" xmlns="http://www.w3.org/2000/svg" xmlns:xlink="http://www.w3.org/1999/xlink">
    <!-- Generator: Sketch 63.1 (92452) - https://sketch.com -->
    <title>filejet-main</title>
    <desc>Created with Sketch.</desc>
    <defs>
        <polygon id="path-1" points="0 0.0810596026 17.8915026 0.0810596026 17.8915026 35.9999046 0 35.9999046"></polygon>
    </defs>
    <g id="Portfolio" stroke="none" stroke-width="1" fill="none" fill-rule="evenodd">
        <g id="filejet-main">
            <g id="Group-3">
                <mask id="mask-2" fill="white">
                    <use xlink:href="#path-1"></use>
                </mask>
                <g id="Clip-2"></g>
                <path d="M8.81689737,7.6063947 C7.37713421,7.6063947 6.21021316,8.78128212 6.21021316,10.2303417 C6.21021316,11.6796397 7.37713421,12.8545272 8.81689737,12.8545272 C10.2566605,12.8545272 11.4235816,11.6796397 11.4235816,10.2303417 C11.4235816,8.78128212 10.2566605,7.6063947 8.81689737,7.6063947 M17.8915026,11.6798781 L17.8915026,33.9552954 C17.8915026,34.7256 17.2712132,35.3499974 16.5059763,35.3499974 C15.7407395,35.3499974 15.12045,34.7256 15.12045,33.9552954 L15.12045,11.6798781 C15.12045,10.1688318 14.1512921,8.03744106 12.5277395,5.97781192 C10.8776605,3.88456689 9.35026579,2.90708344 8.93531842,2.8701298 C8.50592368,2.87036821 6.99676579,3.75034172 5.33958158,5.87052715 C3.75534474,7.89749404 2.77102895,10.1232954 2.77102895,11.6798781 L2.77102895,13.3890437 L2.77102895,13.7316397 L2.77102895,29.4512424 C2.77102895,31.5242225 4.44645,33.2105007 6.50555526,33.2105007 C8.56489737,33.2105007 10.2400816,31.5242225 10.2400816,29.4512424 L10.2400816,22.2848583 L10.2400816,18.8941828 C10.2400816,18.1758517 9.65981842,17.5917457 8.94621316,17.5917457 C8.23260789,17.5917457 7.65234474,18.1758517 7.65234474,18.8941828 L7.65234474,29.317494 C7.65234474,30.0877987 7.03205526,30.712196 6.26681842,30.712196 C5.50158158,30.712196 4.88129211,30.0877987 4.88129211,29.317494 L4.88129211,18.8941828 C4.88129211,16.6378649 6.70473947,14.8021033 8.94621316,14.8021033 C10.9982132,14.8021033 12.6956605,16.3422358 12.9685026,18.3336795 C12.9955026,18.4421563 13.0113711,18.5549245 13.0113711,18.6717457 L13.0113711,18.8941828 L13.0113711,22.2848583 L13.0113711,29.4512424 C13.0113711,33.0622093 10.0927658,35.9999046 6.50555526,35.9999046 C2.91834474,35.9999046 -2.36842105e-05,33.0622093 -2.36842105e-05,29.4512424 L-2.36842105e-05,13.7316397 L-2.36842105e-05,13.3890437 L-2.36842105e-05,11.6798781 C-2.36842105e-05,8.53071258 2.21113421,5.36199735 3.16181842,4.1458649 C3.90716053,3.19222252 6.52687105,0.0809642384 8.94573947,0.0809642384 C12.1052132,0.0809642384 17.8915026,6.90022252 17.8915026,11.6798781" id="Fill-1" fill="#FFFFFF" mask="url(#mask-2)"></path>
            </g>
            <path d="M70.2451076,16.3268036 L67.8775194,16.3268036 L66.6592435,16.3268036 L66.4961091,16.3268036 L66.3898102,16.3268036 L66.3898102,16.4307731 L66.3898102,16.5851029 L66.3898102,17.9872992 L66.3898102,18.2850512 L66.3898102,18.439381 L66.3898102,18.5433505 L66.4961091,18.5433505 L66.6592435,18.5433505 L67.3113053,18.5433505 C67.4323481,18.5433505 67.5307994,18.6354842 67.5307994,18.7485047 L67.5307994,29.8029263 C67.5307994,30.5290885 67.4185554,30.9888288 67.1774209,31.2503771 C66.9186889,31.5304915 66.5962251,31.6611496 66.1629441,31.6611496 C66.0438037,31.6611496 65.890895,31.6490817 65.6813886,31.6235535 C65.4911445,31.6001139 65.3467968,31.5718008 65.2523881,31.5400065 L65.0526318,31.4722407 L64.9232658,31.4283785 L64.9116133,31.5615895 L64.8942535,31.7621022 L64.7415826,33.516356 L64.7308814,33.6386595 L64.7235094,33.7217422 L64.8050766,33.7465743 L64.9282597,33.7841704 C65.1598819,33.8547211 65.3891261,33.9090267 65.6102849,33.9454624 C65.8319193,33.9816661 66.0804257,34 66.3489077,34 C67.6420922,34 68.670124,33.6286802 69.4044663,32.8964841 C70.140949,32.161503 70.5145409,31.1206473 70.5145409,29.8029263 L70.5145409,16.5851029 L70.5145409,16.4307731 L70.5145409,16.3268036 L70.4080042,16.3268036 L70.2451076,16.3268036 Z M91.9852561,28.6216652 L91.9638536,28.518624 L91.6449569,26.9906432 L91.6126154,26.8346889 L91.5909751,26.7311835 L91.4851518,26.7539268 L91.3215419,26.7894343 C91.1576941,26.8249417 90.9465231,26.8597529 90.6937362,26.8929396 C90.4476079,26.9251981 90.2247844,26.9414433 90.0319244,26.9414433 C89.6956679,26.9414433 89.4443079,26.8532548 89.2414601,26.6638818 C89.0554964,26.4905219 88.9651304,26.1551737 88.9651304,25.6381109 L88.9651304,18.3887887 L91.1408099,18.3887887 L91.3037065,18.3887887 L91.4102432,18.3887887 L91.4102432,18.2850512 L91.4102432,18.1302573 L91.4102432,16.5851029 L91.4102432,16.4307731 L91.4102432,16.3268036 L91.3037065,16.3268036 L91.1408099,16.3268036 L88.9651304,16.3268036 L88.9651304,13.6491239 L88.9651304,13.4945621 L88.9651304,13.3908246 L88.8588315,13.3908246 L88.695935,13.3908246 L86.2510601,13.3908246 L86.0879257,13.3908246 L85.981389,13.3908246 L85.981389,13.4945621 L85.981389,13.6491239 L85.981389,16.3268036 L84.6211434,16.3268036 L84.4580091,16.3268036 L84.3514724,16.3268036 L84.3514724,16.4307731 L84.3514724,16.5851029 L84.3514724,18.1302573 L84.3514724,18.2850512 L84.3514724,18.3887887 L84.4580091,18.3887887 L84.6211434,18.3887887 L85.981389,18.3887887 L85.981389,25.6381109 C85.981389,26.8546473 86.302426,27.7822505 86.9352255,28.394696 C87.5501897,28.989968 88.3863127,29.2916653 89.421003,29.2916653 C89.8718816,29.2916653 90.326565,29.2459466 90.7729253,29.1559016 C91.235932,29.0623754 91.5964446,28.9384474 91.8442376,28.7873667 L91.9374572,28.7305083 L92,28.6924481 L91.9852561,28.6216652 Z M80.764657,21.1170607 C80.7570473,20.339842 80.5197177,19.667289 80.0590891,19.1177358 C79.6186739,18.5930145 78.9418804,18.3268247 78.0472574,18.3268247 C77.3302748,18.3268247 76.7374265,18.6029938 76.235182,19.171113 C75.7593339,19.7092946 75.4573213,20.3468042 75.313687,21.1170607 L80.764657,21.1170607 Z M82.1869697,17.648702 C83.1151233,18.6809709 83.5857397,20.0782936 83.5857397,21.8012173 L83.5857397,23.2298701 L83.5857397,23.3841999 L83.5857397,23.4881695 L83.4794408,23.4881695 L83.3163065,23.4881695 L75.1971624,23.4881695 C75.2523332,24.5025686 75.5405531,25.3236495 76.0768038,25.9959703 C76.6327922,26.6931232 77.3944822,27.0319525 78.4056298,27.0319525 C79.1654173,27.0319525 79.8388815,26.9291433 80.4067603,26.7258458 C80.9741634,26.5225482 81.4697494,26.2405772 81.8794877,25.8873593 L82.0262134,25.7606464 L82.1208599,25.6791882 L82.1872075,25.7838539 L82.2897016,25.9449139 L83.2100076,27.3935251 L83.2770686,27.4991192 L83.322965,27.5712945 L83.259471,27.6295452 L83.1660136,27.7149488 C82.6806533,28.1593721 82.0359635,28.53719 81.2497796,28.8377269 C80.4609798,29.1389601 79.5073811,29.2916653 78.4149042,29.2916653 C76.5517007,29.2916653 75.0433025,28.6898952 73.9325146,27.5026003 C72.8421779,26.3373524 72.2892808,24.7921981 72.2892808,22.9105351 L72.2892808,22.4125025 C72.2892808,20.5979092 72.8583486,19.0754982 73.9810268,17.8872749 C75.1396136,16.6612235 76.4696579,16.0650232 78.0472574,16.0650232 C79.8498205,16.0650232 81.2424076,16.597867 82.1869697,17.648702 L82.1869697,17.648702 Z M61.5730666,21.1170607 C61.5661702,20.3020138 61.3478651,19.6491872 60.9062609,19.1223773 C60.4625164,18.5932466 59.817351,18.3361077 58.9334292,18.3361077 C58.2221539,18.3361077 57.6293056,18.6155258 57.1215916,19.1899111 C56.6447922,19.729021 56.3427797,20.3604966 56.2003344,21.1170607 L61.5730666,21.1170607 Z M63.1157087,17.648702 C64.0719233,18.712301 64.556808,20.1093916 64.556808,21.8012173 L64.556808,23.2298701 L64.556808,23.3841999 L64.556808,23.4881695 L64.4505091,23.4881695 L64.2873747,23.4881695 L56.0833342,23.4881695 C56.138505,24.5025686 56.4267249,25.3236495 56.9629756,25.9959703 C57.5187262,26.6931232 58.2804162,27.0319525 59.2915638,27.0319525 C60.0513513,27.0319525 60.7245777,26.9291433 61.2926943,26.7258458 C61.859384,26.5227803 62.3547321,26.2408093 62.7644704,25.8873593 L62.9116718,25.7604144 L63.0063183,25.678724 L63.0726659,25.7836218 L63.1749222,25.945378 L64.0918989,27.3939893 L64.1584843,27.4993512 L64.2043807,27.5715265 L64.1408868,27.6295452 L64.0476671,27.7149488 C63.564447,28.1575155 62.9180926,28.5351013 62.1264392,28.8377269 C61.3376394,29.1389601 60.3807114,29.2916653 59.2818138,29.2916653 C57.4052932,29.2916653 55.8907121,28.6898952 54.7796863,27.5026003 C53.6634289,26.3095035 53.0974526,24.7643491 53.0974526,22.9105351 L53.0974526,22.4125025 C53.0974526,20.6308638 53.6824533,19.1082207 54.8365218,17.8872749 C55.9789378,16.6781649 57.3627261,16.0650232 58.9498377,16.0650232 C60.7695229,16.0650232 62.1711466,16.597867 63.1157087,17.648702 L63.1157087,17.648702 Z M51.8989145,26.8344568 L51.0839562,26.8344568 C50.9629134,26.8344568 50.864462,26.7425551 50.864462,26.6293026 L50.864462,12.2582993 L50.864462,12.1039695 L50.864462,12 L50.7581631,12 L50.5950288,12 L48.1501538,12 L47.9872573,12 L47.8807206,12 L47.8807206,12.1039695 L47.8807206,12.2582993 L47.8807206,14.4217011 L47.8807206,16.3235545 L47.8807206,25.1456481 L47.8807206,27.0528392 L47.8807206,27.4018798 C47.8807206,28.3111491 48.6597703,29.0510037 49.6171739,29.0510037 L50.5950288,29.0510037 L51.8989145,29.0510037 L52.0620489,29.0510037 L52.1683478,29.0510037 L52.1683478,28.9472663 L52.1683478,28.7927044 L52.1683478,27.3696214 L52.1683478,27.0929882 L52.1683478,26.9384263 L52.1683478,26.8344568 L52.0620489,26.8344568 L51.8989145,26.8344568 Z M45.7045655,26.8344568 L44.8896072,26.8344568 C44.7685644,26.8344568 44.670113,26.7425551 44.670113,26.6293026 L44.670113,16.5851029 L44.670113,16.4307731 L44.670113,16.3268036 L44.5638141,16.3268036 L44.4006798,16.3268036 L42.1187014,16.3268036 L41.9558048,16.3268036 L41.8492681,16.3268036 L41.8492681,16.4307731 L41.8492681,16.5851029 L41.8492681,18.7485047 L41.8492681,19.9460109 L41.8492681,24.6204627 L41.8492681,27.0528392 L41.8492681,27.4018798 C41.8492681,28.3111491 42.6283178,29.0510037 43.5857214,29.0510037 L44.4006798,29.0510037 L45.7045655,29.0510037 L45.8676998,29.0510037 L45.9739987,29.0510037 L45.9739987,28.9472663 L45.9739987,28.7927044 L45.9739987,27.3696214 L45.9739987,27.0929882 L45.9739987,26.9384263 L45.9739987,26.8344568 L45.8676998,26.8344568 L45.7045655,26.8344568 Z M38.3528187,12 L32.0880794,12 L27.2694333,12 L27.1065367,12 L27,12 L27,12.1039695 L27,12.2582993 L27,13.7542538 L27,14.1128095 L27,14.2671393 L27,14.3711088 L27.1065367,14.3711088 L27.2694333,14.3711088 L28.3038857,14.3711088 L28.3038857,25.650643 L28.3038857,27.0528392 L28.3038857,28.7927044 L28.3038857,28.9472663 L28.3038857,29.0510037 L28.4104225,29.0510037 L28.573319,29.0510037 L30.8552974,29.0510037 L31.0181939,29.0510037 L31.1247306,29.0510037 L31.1247306,28.9472663 L31.1247306,28.7927044 L31.1247306,27.0528392 L31.1247306,25.1456481 L31.1247306,23.5387618 L31.1247306,23.4881695 L37.7009948,23.4881695 L37.8075315,23.4881695 L37.8075315,23.3841999 L37.8075315,21.2210302 L37.8075315,21.1170607 L37.7009948,21.1170607 L31.1247306,21.1170607 L31.1247306,18.2321381 L31.1247306,14.3711088 L32.0880794,14.3711088 L37.1578478,14.3711088 C37.2843601,14.3711088 37.4039761,14.4706689 37.4039761,14.576263 L37.4315615,15.6605167 L37.4313237,15.8125257 L37.4313237,15.9162632 L37.5378604,15.9162632 L37.6472508,15.9162632 L39.6567045,15.9162632 L39.8198388,15.9162632 L39.9261377,15.9162632 L39.9261377,15.8125257 L39.9261377,15.6579639 L39.9261377,13.5354072 C39.9261377,12.6887982 39.220332,12 38.3528187,12 L38.3528187,12 Z M42.1187014,14.6802325 L44.4006798,14.6802325 L44.5638141,14.6802325 L44.670113,14.6802325 L44.670113,14.576263 L44.670113,14.4217011 L44.670113,12.2582993 L44.670113,12.1039695 L44.670113,12 L44.5638141,12 L44.4006798,12 L42.1187014,12 L41.9558048,12 L41.8492681,12 L41.8492681,12.1039695 L41.8492681,12.2582993 L41.8492681,14.4217011 L41.8492681,14.576263 L41.8492681,14.6802325 L41.9558048,14.6802325 L42.1187014,14.6802325 Z M67.4742018,14.6802325 L67.3676651,14.6802325 L67.3676651,14.576263 L67.3676651,14.4217011 L67.3676651,12.2582993 L67.3676651,12.1039695 L67.3676651,12 L67.4742018,12 L67.6370983,12 L69.9190767,12 L70.0822111,12 L70.18851,12 L70.18851,12.1039695 L70.18851,12.2582993 L70.18851,14.4217011 L70.18851,14.576263 L70.18851,14.6802325 L70.0822111,14.6802325 L69.9190767,14.6802325 L67.6370983,14.6802325 L67.4742018,14.6802325 Z" id="Fill-4" fill="#FFFFFF"></path>
        </g>
    </g>
</svg>