<?xml version="1.0" encoding="UTF-8"?>
<svg width="18px" height="36px" viewBox="0 0 18 36" version="1.1" xmlns="http://www.w3.org/2000/svg" xmlns:xlink="http://www.w3.org/1999/xlink">
    <!-- Generator: Sketch 63.1 (92452) - https://sketch.com -->
    <title>filejet-main copy</title>
    <desc>Created with Sketch.</desc>
    <defs>
        <polygon id="path-1" points="0 0.0810596026 17.8915026 0.0810596026 17.8915026 35.9999046 0 35.9999046"></polygon>
    </defs>
    <g id="Portfolio" stroke="none" stroke-width="1" fill="none" fill-rule="evenodd">
        <g id="filejet-main-copy">
            <g id="Group-3">
                <mask id="mask-2" fill="white">
                    <use xlink:href="#path-1"></use>
                </mask>
                <g id="Clip-2"></g>
                <path d="M8.81689737,7.6063947 C7.37713421,7.6063947 6.21021316,8.78128212 6.21021316,10.2303417 C6.21021316,11.6796397 7.37713421,12.8545272 8.81689737,12.8545272 C10.2566605,12.8545272 11.4235816,11.6796397 11.4235816,10.2303417 C11.4235816,8.78128212 10.2566605,7.6063947 8.81689737,7.6063947 M17.8915026,11.6798781 L17.8915026,33.9552954 C17.8915026,34.7256 17.2712132,35.3499974 16.5059763,35.3499974 C15.7407395,35.3499974 15.12045,34.7256 15.12045,33.9552954 L15.12045,11.6798781 C15.12045,10.1688318 14.1512921,8.03744106 12.5277395,5.97781192 C10.8776605,3.88456689 9.35026579,2.90708344 8.93531842,2.8701298 C8.50592368,2.87036821 6.99676579,3.75034172 5.33958158,5.87052715 C3.75534474,7.89749404 2.77102895,10.1232954 2.77102895,11.6798781 L2.77102895,13.3890437 L2.77102895,13.7316397 L2.77102895,29.4512424 C2.77102895,31.5242225 4.44645,33.2105007 6.50555526,33.2105007 C8.56489737,33.2105007 10.2400816,31.5242225 10.2400816,29.4512424 L10.2400816,22.2848583 L10.2400816,18.8941828 C10.2400816,18.1758517 9.65981842,17.5917457 8.94621316,17.5917457 C8.23260789,17.5917457 7.65234474,18.1758517 7.65234474,18.8941828 L7.65234474,29.317494 C7.65234474,30.0877987 7.03205526,30.712196 6.26681842,30.712196 C5.50158158,30.712196 4.88129211,30.0877987 4.88129211,29.317494 L4.88129211,18.8941828 C4.88129211,16.6378649 6.70473947,14.8021033 8.94621316,14.8021033 C10.9982132,14.8021033 12.6956605,16.3422358 12.9685026,18.3336795 C12.9955026,18.4421563 13.0113711,18.5549245 13.0113711,18.6717457 L13.0113711,18.8941828 L13.0113711,22.2848583 L13.0113711,29.4512424 C13.0113711,33.0622093 10.0927658,35.9999046 6.50555526,35.9999046 C2.91834474,35.9999046 -2.36842105e-05,33.0622093 -2.36842105e-05,29.4512424 L-2.36842105e-05,13.7316397 L-2.36842105e-05,13.3890437 L-2.36842105e-05,11.6798781 C-2.36842105e-05,8.53071258 2.21113421,5.36199735 3.16181842,4.1458649 C3.90716053,3.19222252 6.52687105,0.0809642384 8.94573947,0.0809642384 C12.1052132,0.0809642384 17.8915026,6.90022252 17.8915026,11.6798781" id="Fill-1" fill="#FFFFFF" mask="url(#mask-2)"></path>
            </g>
        </g>
    </g>
</svg>